<svg width="116" height="106" viewBox="0 0 116 106" fill="none" xmlns="http://www.w3.org/2000/svg">
<path d="M36.2057 41.7028H30.2336C29.2952 41.7028 28.5273 40.9617 28.5273 40.0559V30.1743C28.5273 29.2685 29.2952 28.5273 30.2336 28.5273H31.0868L32.7931 31.8212H35.3526L33.6463 28.5273H35.3526L37.0589 31.8212H39.6183L37.912 28.5273H39.6183L41.3246 31.8212H43.8841L42.1778 28.5273H45.5904V35.9385C45.1638 35.2798 44.5666 34.7033 43.8841 34.2916V33.4681H31.7693L30.2336 30.586V40.0559H35.5232C35.6938 40.6323 35.8644 41.2087 36.2057 41.7028ZM44.14 40.797C44.4813 40.2206 44.7372 39.5618 44.7372 38.8207C44.7372 36.762 43.0309 35.1151 40.898 35.1151C38.7652 35.1151 37.0589 36.762 37.0589 38.8207C37.0589 40.8794 38.7652 42.5263 40.898 42.5263C41.6659 42.5263 42.3484 42.3616 42.9456 41.9499L45.5904 44.5026L46.7848 43.3498L44.14 40.797ZM40.898 40.8794C39.7036 40.8794 38.7652 39.9735 38.7652 38.8207C38.7652 37.6678 39.7036 36.762 40.898 36.762C42.0925 36.762 43.0309 37.6678 43.0309 38.8207C43.0309 39.9735 42.0925 40.8794 40.898 40.8794Z" fill="white"/>
<path d="M75.4036 43.0319L75.3123 43.1252L75.2119 43.0319C70.8758 39.0117 68.0093 36.3533 68.0093 33.6576C68.0093 31.792 69.3786 30.3929 71.2044 30.3929C72.6102 30.3929 73.9795 31.3257 74.4633 32.5942H76.1613C76.6451 31.3257 78.0144 30.3929 79.4202 30.3929C81.246 30.3929 82.6153 31.792 82.6153 33.6576C82.6153 36.3533 79.7489 39.0117 75.4036 43.0319ZM79.4202 28.5273C77.8318 28.5273 76.3073 29.2829 75.3123 30.4675C74.3173 29.2829 72.7928 28.5273 71.2044 28.5273C68.3927 28.5273 66.1836 30.7753 66.1836 33.6576C66.1836 37.1741 69.2874 40.0564 73.9887 44.4124L75.3123 45.6437L76.636 44.4124C81.3373 40.0564 84.441 37.1741 84.441 33.6576C84.441 30.7753 82.2319 28.5273 79.4202 28.5273Z" fill="white"/>
<path d="M55.253 39.2748V34.2464H56.5243V39.2748H55.253ZM53.3745 37.3962V36.1249H58.4029V37.3962H53.3745Z" fill="white"/>
<path d="M35.177 62.4553V61.1946H40.0811V62.4553H35.177ZM35.177 64.8132V63.5526H40.0811V64.8132H35.177Z" fill="white"/>
<path d="M47.9258 54.7725V58.4424C49.0144 57.9531 49.9584 57.0721 50.664 56.1171C50.4852 55.9822 50.3198 55.8421 50.1706 55.6971C49.8782 55.4129 49.6412 55.1037 49.4973 54.7725H47.9258ZM50.2944 54.7725C50.3856 54.909 50.5019 55.049 50.6481 55.1909C51.0596 55.5909 51.6647 55.9856 52.3695 56.3244C53.779 57.002 55.5893 57.4585 57.0545 57.4585C58.5197 57.4585 60.33 57.002 61.7395 56.3244C62.4443 55.9856 63.0494 55.5909 63.4609 55.1909C63.6071 55.049 63.7233 54.909 63.8146 54.7725H50.2944ZM64.6116 54.7725C64.4678 55.1037 64.2308 55.4129 63.9384 55.697C63.7891 55.8421 63.6238 55.9821 63.445 56.117C64.1506 57.0721 65.0946 57.9531 66.1832 58.4424V54.7725H64.6116ZM61.4452 55.4239C60.8433 56.1325 59.0654 56.6148 57.0545 56.6149C55.0507 56.614 53.2787 56.1345 52.6729 55.4291C53.7168 55.849 55.3364 56.0955 57.0545 56.096C58.7787 56.0952 60.4027 55.8466 61.4452 55.4239ZM51.2545 56.5157C50.4331 57.6501 49.2976 58.6815 47.9258 59.2021V65.977C48.0069 66.0083 48.0835 66.0228 48.1559 66.0228C48.4747 65.9977 48.6275 65.823 48.8588 65.6342C49.9929 64.6989 50.748 63.0544 51.3539 60.998C51.7063 59.8021 52.0112 58.4712 52.3259 57.0748C52.2414 57.0368 52.1574 56.9977 52.0739 56.9576C51.7857 56.8192 51.5112 56.6717 51.2545 56.5158V56.5157ZM62.8545 56.5157C62.5978 56.6716 62.3232 56.8191 62.0352 56.9576C61.9516 56.9977 61.8676 57.0367 61.7831 57.0747C62.0978 58.4712 62.4027 59.8021 62.7551 60.998C63.361 63.0544 64.1161 64.6989 65.2502 65.6342C65.4579 65.8151 65.6806 66.0192 65.9531 66.0228C66.0255 66.0228 66.102 66.0083 66.1832 65.977V59.202C64.8114 58.6814 63.6759 57.6499 62.8545 56.5157ZM49.0047 66.4253C48.7402 66.6142 48.4548 66.7235 48.1559 66.7235C48.0782 66.7235 48.0015 66.7158 47.9258 66.7015V71.4975C48.1664 71.5758 48.4665 71.6285 48.7696 71.6285C49.2456 71.6285 49.7146 71.4986 49.9563 71.3437C49.9548 69.6481 49.919 67.9163 49.0047 66.4253ZM65.1042 66.4253C64.1899 67.9163 64.1542 69.6481 64.1526 71.3437C64.3944 71.4986 64.8634 71.6285 65.3394 71.6285C65.6424 71.6285 65.9426 71.5758 66.1832 71.4976V66.7016C66.1073 66.716 66.0303 66.7234 65.9531 66.7235C65.6542 66.7235 65.3688 66.6142 65.1042 66.4253ZM50.6257 69.9935C50.6487 70.5103 50.649 71.02 50.649 71.5117V71.6569L50.5479 71.7594C50.119 72.1947 49.4408 72.3292 48.7696 72.3292C48.4829 72.3292 48.195 72.3044 47.9258 72.2423V73.0299H66.1832V72.2423C65.9139 72.3044 65.6261 72.3292 65.3394 72.3292C64.6681 72.3292 63.99 72.1947 63.5611 71.7594L63.4599 71.6569V71.5117C63.4599 71.02 63.4603 70.5103 63.4833 69.9935H50.6257Z" fill="white"/>
<path d="M90.3555 21.8465C90.18 21.6911 90.0897 21.5009 90.0846 21.276C90.0829 21.0509 90.1675 20.8581 90.3382 20.6975C90.5072 20.5386 90.7141 20.4573 90.9588 20.4536C91.2054 20.4515 91.4164 20.5281 91.5919 20.6835C91.762 20.8342 91.8506 21.0228 91.8575 21.2493C91.8644 21.4759 91.7833 21.6686 91.6143 21.8276C91.5005 21.9346 91.366 22.0061 91.2109 22.0419C91.0593 22.0777 90.9072 22.08 90.7546 22.0488C90.6037 22.0159 90.4707 21.9485 90.3555 21.8465Z" fill="white"/>
<path d="M86.3642 18.787C86.0287 18.5439 85.7948 18.2433 85.6624 17.8853C85.5335 17.5269 85.5262 17.1329 85.6405 16.7032C85.7583 16.2732 86.0169 15.8286 86.4162 15.3696C86.8264 14.898 87.249 14.565 87.6838 14.3705C88.1202 14.1742 88.5412 14.0963 88.9467 14.1367C89.3556 14.1768 89.7221 14.3142 90.0461 14.5489C90.2934 14.7281 90.4653 14.9167 90.5618 15.1148C90.6618 15.3124 90.7121 15.5061 90.7127 15.6958C90.7168 15.8852 90.6975 16.0546 90.6549 16.2043L90.6922 16.2314L92.4868 14.1683L93.709 15.0538L88.9358 20.541L87.728 19.6659L88.3014 19.0068L88.2496 18.9693C88.0927 19.0419 87.9125 19.0963 87.7092 19.1325C87.5093 19.1682 87.2942 19.1623 87.0637 19.1146C86.8351 19.0684 86.6019 18.9592 86.3642 18.787ZM87.5425 18.16C87.74 18.303 87.9503 18.3739 88.1734 18.3725C88.4 18.3706 88.629 18.305 88.8603 18.1756C89.0936 18.0476 89.3166 17.8613 89.5295 17.6165C89.7423 17.3718 89.8908 17.1329 89.9749 16.8997C90.059 16.6665 90.0747 16.4508 90.0222 16.2525C89.9696 16.0543 89.8446 15.8836 89.6471 15.7406C89.4458 15.5947 89.2319 15.5227 89.0053 15.5245C88.7787 15.5263 88.5514 15.5917 88.3236 15.7207C88.0957 15.8497 87.8785 16.033 87.6718 16.2706C87.4636 16.5099 87.3149 16.7473 87.2258 16.9827C87.1402 17.2176 87.1204 17.4362 87.1664 17.6384C87.2158 17.8403 87.3412 18.0141 87.5425 18.16Z" fill="white"/>
<path d="M82.4693 12.7503L80.7459 15.3911L79.4168 14.6686L82.3978 10.1007L83.6645 10.7893L83.1386 11.5952L83.1947 11.6257C83.4742 11.4177 83.7892 11.3043 84.1397 11.2853C84.4915 11.2643 84.8452 11.3505 85.2009 11.5439C85.5337 11.7248 85.7786 11.9519 85.9356 12.2252C86.0925 12.4985 86.1555 12.8014 86.1246 13.1337C86.095 13.4641 85.9644 13.8067 85.7328 14.1616L83.8347 17.0701L82.5056 16.3476L84.2562 13.6652C84.4407 13.3868 84.5081 13.128 84.4585 12.8888C84.4101 12.6477 84.2529 12.4547 83.9866 12.31C83.8077 12.2128 83.6257 12.1635 83.4406 12.1623C83.2575 12.1621 83.0816 12.2115 82.9127 12.3105C82.7473 12.4085 82.5995 12.5552 82.4693 12.7503Z" fill="white"/>
<path d="M76.9292 13.7046L79.4402 8.86244L80.829 9.46229L78.318 14.3045L76.9292 13.7046ZM80.4616 8.53958C80.2551 8.4504 80.1123 8.30769 80.0332 8.11146C79.9573 7.91405 79.9679 7.72183 80.0649 7.53478C80.1608 7.34984 80.3159 7.22261 80.5301 7.1531C80.7477 7.08243 80.9597 7.09168 81.1661 7.18086C81.3726 7.27004 81.5138 7.41333 81.5896 7.61073C81.6688 7.80697 81.6604 7.99756 81.5645 8.18251C81.4675 8.36956 81.3102 8.49841 81.0927 8.56909C80.8784 8.6386 80.668 8.62876 80.4616 8.53958Z" fill="white"/>
<path d="M78.2549 8.38951L77.8081 9.43437L74.6368 8.30492L75.0835 7.26006L78.2549 8.38951ZM73.665 12.5339L75.9644 7.15616C76.1198 6.79264 76.3212 6.51696 76.5686 6.32914C76.8182 6.14212 77.0957 6.03402 77.4011 6.00484C77.7065 5.97566 78.0209 6.01866 78.3443 6.13383C78.5629 6.21167 78.7555 6.29908 78.9222 6.39607C79.0911 6.49385 79.2146 6.57169 79.2926 6.62958L78.5916 7.58389C78.5433 7.54662 78.4812 7.50567 78.4052 7.46105C78.3314 7.41722 78.2521 7.38021 78.1674 7.35003C77.9577 7.27537 77.7912 7.27123 77.6677 7.33762C77.5452 7.40184 77.4476 7.51884 77.375 7.68863L75.0868 13.0403L73.665 12.5339Z" fill="white"/>
<path d="M66.9215 10.9762C66.5152 10.8955 66.1718 10.7189 65.8914 10.4462C65.6139 10.1717 65.427 9.81263 65.3308 9.36907C65.2375 8.92366 65.2613 8.40502 65.4023 7.81315C65.5471 7.20515 65.7662 6.71922 66.0595 6.35535C66.3535 5.98918 66.688 5.73839 67.0631 5.60298C67.4412 5.46573 67.8264 5.43604 68.2188 5.51389C68.5184 5.57331 68.756 5.6735 68.9315 5.81445C69.11 5.95356 69.2429 6.11017 69.3303 6.28428C69.4206 6.45655 69.4813 6.62052 69.5123 6.77621L69.5576 6.78519L70.1911 4.12522L71.6715 4.4189L69.9865 11.4937L68.5235 11.2035L68.7259 10.3537L68.6632 10.3413C68.5584 10.4748 68.4249 10.6015 68.2626 10.7213C68.1032 10.8392 67.9113 10.9253 67.6868 10.9796C67.4646 11.0344 67.2095 11.0333 66.9215 10.9762ZM67.6707 9.89837C67.9099 9.94581 68.1273 9.92141 68.3229 9.82515C68.5213 9.72704 68.6926 9.56929 68.8368 9.35189C68.9833 9.13495 69.0942 8.86872 69.1693 8.55321C69.2445 8.2377 69.2656 7.95489 69.2328 7.70478C69.1999 7.45467 69.115 7.2497 68.978 7.08987C68.8409 6.93003 68.6528 6.82639 68.4136 6.77894C68.1698 6.73057 67.9487 6.75544 67.7502 6.85354C67.5517 6.95165 67.3819 7.10848 67.2405 7.32404C67.0992 7.5396 66.9921 7.80053 66.9191 8.10682C66.8456 8.41543 66.8236 8.69686 66.853 8.95111C66.8853 9.20352 66.968 9.41287 67.101 9.57915C67.237 9.74359 67.4269 9.85 67.6707 9.89837Z" fill="white"/>
<path d="M60.6 6.99163L60.3234 10.1329L58.8146 10.0222L59.2932 4.5887L60.7311 4.69417L60.6466 5.65282L60.7104 5.65749C60.8586 5.35031 61.0825 5.11514 61.382 4.95198C61.6818 4.78646 62.0335 4.7185 62.4373 4.74812C62.815 4.77583 63.1371 4.88253 63.4036 5.06822C63.67 5.25391 63.8676 5.50576 63.9965 5.82377C64.1255 6.13942 64.1714 6.50832 64.1343 6.93045L63.8296 10.3901L62.3209 10.2794L62.6019 7.08863C62.6335 6.75628 62.5713 6.49063 62.4154 6.29168C62.2597 6.09038 62.0307 5.97864 61.7285 5.95647C61.5254 5.94158 61.3421 5.97204 61.1786 6.04787C61.0174 6.12387 60.8858 6.24238 60.7837 6.40341C60.6842 6.56226 60.6229 6.75833 60.6 6.99163Z" fill="white"/>
<path d="M54.622 10.2587C54.2743 10.2739 53.9613 10.2271 53.683 10.1184C53.4046 10.0073 53.1799 9.83587 53.0089 9.604C52.8402 9.36967 52.7464 9.07282 52.7276 8.71346C52.7117 8.41085 52.754 8.15427 52.8544 7.94374C52.9548 7.73321 53.0975 7.56111 53.2825 7.42745C53.4675 7.29379 53.6801 7.18973 53.9204 7.11527C54.1631 7.04071 54.4185 6.98454 54.6868 6.94677C55.002 6.89985 55.2558 6.85797 55.4483 6.82114C55.6406 6.78194 55.779 6.73088 55.8634 6.66796C55.9478 6.60504 55.987 6.51565 55.9809 6.39981L55.9798 6.37853C55.968 6.15393 55.888 5.98326 55.7396 5.86652C55.5936 5.74967 55.3917 5.69686 55.1339 5.70811C54.8619 5.71998 54.6487 5.7897 54.4942 5.91729C54.3395 6.04252 54.2409 6.19611 54.1983 6.37806L52.7945 6.32556C52.8481 5.99147 52.9727 5.69932 53.1682 5.44909C53.3636 5.1965 53.6222 4.99802 53.9442 4.85365C54.2684 4.70681 54.6481 4.6239 55.0833 4.60491C55.386 4.5917 55.6776 4.61453 55.958 4.67338C56.2408 4.73213 56.4938 4.83128 56.7168 4.97083C56.9422 5.11029 57.1237 5.2943 57.2613 5.52289C57.3988 5.74911 57.476 6.02417 57.493 6.34806L57.6854 10.022L56.2521 10.0845L56.2126 9.32917L56.17 9.33103C56.0914 9.50507 55.9822 9.6603 55.8424 9.79673C55.7024 9.93079 55.5315 10.039 55.3295 10.1212C55.1275 10.2011 54.8916 10.247 54.622 10.2587ZM55.0002 9.19724C55.2225 9.18754 55.4166 9.13524 55.5823 9.04033C55.7479 8.94306 55.8752 8.81666 55.9642 8.66112C56.0533 8.50558 56.0928 8.33207 56.0827 8.14057L56.0525 7.56252C56.0068 7.59532 55.9432 7.62653 55.8618 7.65615C55.7826 7.6833 55.6927 7.70973 55.5922 7.73544C55.4914 7.75879 55.3907 7.78096 55.2898 7.80195C55.1889 7.82057 55.0973 7.8376 55.0151 7.85303C54.8391 7.88677 54.6864 7.93491 54.5569 7.99742C54.4274 8.05994 54.3286 8.14127 54.2603 8.2414C54.1919 8.33916 54.1615 8.45897 54.1689 8.60082C54.1797 8.80651 54.2624 8.96048 54.4171 9.06273C54.5741 9.16251 54.7684 9.20735 55.0002 9.19724Z" fill="white"/>
<path d="M45.4231 8.25381L46.1913 11.3122L44.7105 11.622L42.9389 4.56837L44.3779 4.26731L45.0552 6.96409L45.1178 6.951C45.1599 6.61352 45.2931 6.32826 45.5175 6.09522C45.7413 5.85989 46.056 5.69981 46.4615 5.61497C46.8323 5.5374 47.1757 5.55014 47.4918 5.65318C47.8097 5.75343 48.0826 5.93681 48.3105 6.20331C48.5401 6.46702 48.7057 6.80577 48.8072 7.21956L49.6533 10.5879L48.1725 10.8977L47.3922 7.79109C47.3127 7.46456 47.1655 7.2283 46.9508 7.08229C46.7384 6.93581 46.4816 6.89407 46.1803 6.9571C45.9787 6.99927 45.811 7.07908 45.677 7.19652C45.5454 7.31347 45.4561 7.46267 45.409 7.64411C45.3636 7.82278 45.3683 8.02601 45.4231 8.25381Z" fill="white"/>
<path d="M41.5717 12.6622C41.0424 12.8409 40.5426 12.8849 40.0723 12.7943C39.6034 12.7007 39.1873 12.492 38.824 12.1681C38.463 11.8436 38.1788 11.4257 37.9716 10.9145C37.7617 10.3967 37.6797 9.90805 37.7255 9.4486C37.7727 8.9862 37.9413 8.5813 38.2315 8.23392C38.5207 7.88433 38.9266 7.62132 39.4493 7.44487C39.9001 7.29265 40.3273 7.23944 40.731 7.28526C41.1346 7.33107 41.4938 7.46546 41.8086 7.68843C42.1233 7.9114 42.37 8.21474 42.5485 8.59846L41.1959 9.05512C41.0555 8.81568 40.8723 8.64681 40.6463 8.54851C40.4217 8.44726 40.1781 8.44094 39.9157 8.52954C39.6936 8.60451 39.5236 8.72926 39.4057 8.90378C39.2891 9.07534 39.2301 9.28855 39.2289 9.54339C39.2276 9.79823 39.2915 10.0847 39.4204 10.4029C39.5512 10.7254 39.7072 10.9845 39.8885 11.1802C40.0721 11.3751 40.2709 11.5038 40.4849 11.5662C40.6989 11.6287 40.9169 11.6224 41.139 11.5474C41.3027 11.4921 41.4363 11.4096 41.5397 11.2999C41.6454 11.1894 41.7155 11.0572 41.75 10.9034C41.7859 10.7466 41.7813 10.5748 41.7362 10.388L43.0887 9.93134C43.2228 10.3251 43.253 10.7015 43.1793 11.0606C43.1069 11.4168 42.9359 11.734 42.6661 12.0121C42.3964 12.2902 42.0316 12.5069 41.5717 12.6622Z" fill="white"/>
<path d="M35.5264 14.9167L32.9222 10.124L34.2584 9.51927L34.7128 10.3555L34.7645 10.3321C34.6935 9.99362 34.7235 9.70014 34.8545 9.45165C34.9844 9.20108 35.1884 9.01284 35.4667 8.88692C35.5357 8.85568 35.6124 8.82617 35.6967 8.79837C35.781 8.77058 35.8573 8.7503 35.9256 8.73753L36.5665 9.917C36.4916 9.92756 36.3931 9.95142 36.2708 9.9886C36.1486 10.0258 36.04 10.0658 35.9451 10.1088C35.7424 10.2005 35.5844 10.3252 35.4711 10.4827C35.3589 10.6372 35.2971 10.8103 35.2857 11.002C35.2765 11.1928 35.325 11.3859 35.4313 11.5815L36.9046 14.293L35.5264 14.9167Z" fill="white"/>
<path d="M31.9408 16.8982C31.6397 17.0726 31.3369 17.1785 31.0324 17.2159C30.7265 17.2513 30.4367 17.2106 30.1629 17.0938C29.8898 16.9739 29.6505 16.7663 29.445 16.4708C29.272 16.2221 29.1748 15.9853 29.1535 15.7604C29.1322 15.5355 29.1686 15.3235 29.2629 15.1244C29.3572 14.9253 29.4916 14.7383 29.6661 14.5636C29.8426 14.3877 30.0402 14.2214 30.2589 14.0648C30.5144 13.8785 30.7181 13.7251 30.8699 13.6044C31.0203 13.4819 31.1165 13.3743 31.1585 13.2818C31.2005 13.1893 31.1883 13.0955 31.1221 13.0002L31.1099 12.9827C30.9815 12.7981 30.8207 12.6909 30.6275 12.661C30.4363 12.63 30.2291 12.6791 30.0058 12.8085C29.7703 12.945 29.6173 13.1031 29.5469 13.2829C29.4752 13.4608 29.4682 13.6366 29.5259 13.8105L28.2504 14.4186C28.1226 14.1109 28.0798 13.8057 28.1222 13.503C28.1633 13.1984 28.289 12.9101 28.4993 12.6383C28.7104 12.3633 29.0044 12.1166 29.3814 11.8983C29.6436 11.7464 29.9148 11.6301 30.195 11.5496C30.4773 11.4678 30.7542 11.4342 31.0258 11.4486C31.2994 11.4619 31.5574 11.5333 31.7998 11.6628C32.0409 11.7904 32.254 11.9873 32.4392 12.2535L34.5399 15.2738L33.2985 15.993L32.8666 15.372L32.8298 15.3934C32.8513 15.5772 32.8357 15.7594 32.7831 15.9398C32.7291 16.1184 32.6339 16.2894 32.4976 16.4529C32.36 16.6144 32.1744 16.7629 31.9408 16.8982ZM31.7195 15.8239C31.9121 15.7123 32.0571 15.5779 32.1546 15.4205C32.2507 15.2612 32.2975 15.095 32.295 14.922C32.2924 14.7489 32.2364 14.5837 32.1269 14.4263L31.7964 13.9511C31.773 14.0001 31.7329 14.0561 31.6761 14.119C31.62 14.1788 31.5539 14.2429 31.478 14.3114C31.4007 14.378 31.3228 14.4436 31.2442 14.5083C31.1642 14.571 31.0917 14.6279 31.0268 14.6792C30.888 14.7896 30.7775 14.9013 30.6953 15.0144C30.613 15.1275 30.5678 15.2423 30.5597 15.3588C30.5503 15.4733 30.5861 15.5889 30.6672 15.7055C30.7849 15.8746 30.9393 15.9664 31.1305 15.9811C31.3225 15.9926 31.5188 15.9402 31.7195 15.8239Z" fill="white"/>
<path d="M27.8715 19.5038C27.4237 19.8418 26.9619 20.0486 26.4862 20.124C26.0107 20.1963 25.5454 20.1428 25.0902 19.9635C24.6334 19.7825 24.2118 19.4788 23.8255 19.0525C23.4488 18.6368 23.205 18.2063 23.0943 17.761C22.9836 17.3158 23.0065 16.8864 23.1631 16.4728C23.3216 16.0577 23.6144 15.689 24.0414 15.3667C24.3286 15.1499 24.635 14.9911 24.9604 14.8902C25.2861 14.7862 25.6187 14.7493 25.9581 14.7797C26.2993 14.8087 26.6388 14.9129 26.9764 15.0923C27.3124 15.27 27.6362 15.5308 27.9478 15.8746L28.2268 16.1825L24.5506 18.9572L23.9211 18.2625L26.4607 16.3457C26.3144 16.1843 26.1471 16.0698 25.9586 16.0023C25.7702 15.9348 25.5771 15.9166 25.3793 15.9477C25.1819 15.9756 24.9953 16.0559 24.8195 16.1885C24.6363 16.3269 24.5095 16.489 24.4393 16.6749C24.3695 16.8576 24.3544 17.0447 24.3943 17.2362C24.4326 17.4259 24.5231 17.6013 24.6659 17.7624L25.2644 18.4229C25.4456 18.6229 25.6419 18.7657 25.8532 18.8514C26.0664 18.9357 26.2825 18.9617 26.5014 18.9294C26.7203 18.8971 26.9309 18.8046 27.1331 18.652C27.2672 18.5508 27.3742 18.4405 27.4538 18.3213C27.5335 18.202 27.5813 18.0774 27.597 17.9473C27.6128 17.8172 27.5954 17.6856 27.5448 17.5525L28.7235 16.778C28.8926 17.0699 28.9735 17.3752 28.9662 17.6938C28.9593 18.0092 28.8648 18.3228 28.6827 18.6345C28.5009 18.943 28.2305 19.2328 27.8715 19.5038Z" fill="white"/>
<path d="M20.0715 19.0371C19.8324 18.8723 19.5755 18.8144 19.301 18.8634C19.0264 18.9124 18.7577 19.0666 18.4948 19.3259C18.3162 19.5022 18.1925 19.6739 18.1237 19.8411C18.0532 20.0068 18.032 20.1617 18.0604 20.306C18.0904 20.4486 18.1651 20.5703 18.2845 20.6711C18.3807 20.7584 18.4869 20.8126 18.6032 20.8336C18.7212 20.853 18.8452 20.8482 18.9753 20.8192C19.1036 20.7887 19.2374 20.7411 19.3766 20.6766C19.514 20.6106 19.6527 20.5333 19.7928 20.4448L20.3773 20.0867C20.6574 19.9097 20.937 19.7663 21.2162 19.6564C21.4954 19.5465 21.7701 19.4792 22.0404 19.4543C22.3106 19.4294 22.5732 19.4552 22.8281 19.5316C23.0848 19.6063 23.3297 19.7405 23.5629 19.9343C23.9013 20.2231 24.1153 20.5518 24.2049 20.9205C24.2943 21.2861 24.2578 21.6748 24.0953 22.0869C23.9327 22.4957 23.6407 22.908 23.2194 23.3237C22.8015 23.736 22.3687 24.0371 21.9212 24.227C21.4753 24.4152 21.0308 24.4812 20.5876 24.4249C20.1444 24.3655 19.7187 24.1711 19.3105 23.8419L20.3696 22.7969C20.5677 22.9426 20.773 23.0248 20.9855 23.0438C21.1978 23.0595 21.4098 23.0209 21.6214 22.928C21.8329 22.832 22.033 22.6908 22.2218 22.5046C22.4071 22.3217 22.5391 22.1385 22.6177 21.9549C22.698 21.7697 22.7245 21.5962 22.6973 21.4343C22.67 21.2724 22.5894 21.135 22.4556 21.022C22.3307 20.9166 22.1913 20.8621 22.0371 20.8585C21.8847 20.8532 21.7129 20.8903 21.5218 20.9696C21.3323 21.0472 21.1188 21.1585 20.8812 21.3035L20.1655 21.7314C19.6151 22.0658 19.0923 22.2555 18.5971 22.3002C18.1019 22.345 17.6498 22.1932 17.2409 21.8449C16.9027 21.5625 16.6922 21.2321 16.6092 20.8535C16.528 20.4733 16.5651 20.0773 16.7206 19.6655C16.8761 19.2538 17.1426 18.8617 17.5201 18.4892C17.9043 18.1101 18.3102 17.8388 18.7378 17.6752C19.1671 17.51 19.5875 17.4546 19.9991 17.5089C20.4106 17.5632 20.7844 17.7276 21.1205 18.0021L20.0715 19.0371Z" fill="white"/>
<path d="M17.3222 30.1311C17.1923 30.3261 17.0082 30.4534 16.7701 30.5128C16.5313 30.5692 16.3094 30.5405 16.1044 30.4267C15.9016 30.3141 15.7737 30.1487 15.7207 29.9304C15.669 29.7101 15.7081 29.5024 15.8381 29.3073C15.9641 29.1182 16.1468 28.9929 16.3862 28.9315C16.6256 28.8701 16.8468 28.8957 17.0496 29.0083C17.1863 29.0841 17.2892 29.1871 17.3584 29.3172C17.4268 29.4443 17.4598 29.58 17.4572 29.7243C17.4526 29.8674 17.4076 30.003 17.3222 30.1311Z" fill="white"/>
<path d="M13.4007 36.8478L7.69933 36.0999L8.37808 34.7281L12.1412 35.3669L12.1632 35.3224L9.16549 33.1366L9.83163 31.7903L13.5971 32.3765L13.6176 32.3351L10.6175 30.202L11.2946 28.8334L15.681 32.239L14.9708 33.6745L11.3834 33.2077L11.3535 33.2681L14.1093 35.4155L13.4007 36.8478Z" fill="white"/>
<path d="M12.0527 40.7505C11.8899 41.2875 11.6396 41.7218 11.3018 42.0536C10.9624 42.3825 10.5579 42.5999 10.0885 42.7057C9.61668 42.811 9.10191 42.7932 8.54414 42.6523C8.00014 42.5149 7.55431 42.2901 7.20663 41.9779C6.85896 41.6657 6.62772 41.2915 6.5129 40.8551C6.39877 40.4166 6.41933 39.9413 6.57458 39.4292C6.67899 39.0849 6.83243 38.7785 7.03489 38.5101C7.23574 38.2389 7.48115 38.0204 7.77112 37.8546C8.06178 37.6865 8.39471 37.5828 8.76991 37.5434C9.14281 37.5034 9.5542 37.5402 10.0041 37.6539L10.4069 37.7556L9.0705 42.1633L8.16154 41.9337L9.08478 38.8888C8.8736 38.8354 8.67279 38.8335 8.48235 38.883C8.2919 38.9324 8.12638 39.026 7.9858 39.1637C7.8436 39.2985 7.74056 39.4713 7.67668 39.682C7.61004 39.9017 7.60261 40.1096 7.65438 40.3056C7.70454 40.4988 7.80128 40.6647 7.94458 40.8033C8.08558 40.9413 8.26018 41.0379 8.46837 41.0929L9.33257 41.3111C9.59424 41.3772 9.83476 41.3868 10.0541 41.3397C10.2742 41.2904 10.4626 41.1904 10.6195 41.0398C10.7764 40.8892 10.8916 40.6927 10.9651 40.4502C11.0138 40.2894 11.0355 40.1363 11.0302 39.9911C11.0248 39.8458 10.9906 39.714 10.9277 39.5957C10.8647 39.4773 10.7742 39.3764 10.6562 39.2929L11.1517 37.9766C11.457 38.1269 11.6994 38.3381 11.8788 38.6102C12.0566 38.8795 12.1631 39.1967 12.1982 39.5617C12.2318 39.9238 12.1833 40.3201 12.0527 40.7505Z" fill="white"/>
<path d="M7.31697 46.8666L10.4446 47.2693L10.2135 48.7643L4.80359 48.0678L5.02383 46.643L5.97831 46.7658L5.98807 46.7027C5.69188 46.5428 5.4739 46.3108 5.33415 46.0064C5.19205 45.7018 5.15193 45.3494 5.21377 44.9493C5.27163 44.575 5.40426 44.2592 5.61166 44.0019C5.81906 43.7447 6.08731 43.5585 6.41643 43.4434C6.74319 43.328 7.11672 43.2973 7.53702 43.3514L10.9816 43.7949L10.7505 45.2899L7.57361 44.8809C7.2429 44.836 6.9716 44.8869 6.7597 45.0338C6.54546 45.1805 6.41519 45.4035 6.3689 45.703C6.3378 45.9042 6.35375 46.0876 6.41676 46.2532C6.48014 46.4164 6.58849 46.5521 6.74182 46.6601C6.89316 46.7655 7.08488 46.8343 7.31697 46.8666Z" fill="white"/>
<path d="M6.11236 51.6814L6.25093 53.0626C6.13353 53.0901 6.02902 53.1444 5.93738 53.2255C5.84338 53.3067 5.77045 53.412 5.71859 53.5416C5.66427 53.6689 5.64049 53.8201 5.64724 53.9951C5.65628 54.2293 5.71359 54.4253 5.81918 54.5829C5.9224 54.7407 6.05564 54.8169 6.21891 54.8117C6.34905 54.8075 6.45707 54.7519 6.54297 54.6449C6.62887 54.538 6.69415 54.357 6.73881 54.1022L6.89951 53.1093C6.98791 52.5759 7.14776 52.1752 7.37908 51.9072C7.61039 51.6392 7.92244 51.4989 8.31523 51.4863C8.67253 51.4748 8.99011 51.57 9.26798 51.7719C9.54576 51.9714 9.7674 52.2509 9.93289 52.6103C10.0959 52.9675 10.1866 53.3826 10.2048 53.8558C10.2327 54.5773 10.1046 55.157 9.8206 55.5948C9.53415 56.0304 9.13206 56.2932 8.61433 56.3832L8.47888 54.8989C8.6972 54.8469 8.861 54.7327 8.97028 54.5563C9.0772 54.3799 9.12545 54.1569 9.11505 53.8872C9.10483 53.6223 9.04574 53.411 8.93779 53.2534C8.82738 53.0935 8.69049 53.015 8.52713 53.0179C8.38998 53.0247 8.27982 53.0862 8.19666 53.2026C8.11112 53.3191 8.04926 53.4963 8.01106 53.7344L7.85936 54.6844C7.77342 55.22 7.60414 55.6222 7.35153 55.8909C7.09883 56.1572 6.76899 56.2969 6.362 56.31C6.01181 56.3212 5.70646 56.2363 5.44598 56.0552C5.1854 55.8717 4.97983 55.6094 4.82927 55.2685C4.67861 54.9251 4.59429 54.5204 4.57631 54.0544C4.54975 53.366 4.67437 52.8196 4.95017 52.4152C5.22588 52.0084 5.61328 51.7638 6.11236 51.6814Z" fill="white"/>
<path d="M3.22684 58.755L3.98845 58.6639C4.20471 58.638 4.43173 58.6537 4.66952 58.711C4.90462 58.7663 5.13201 58.8511 5.35168 58.9655C5.56901 59.0801 5.7588 59.2111 5.92107 59.3585L5.62467 60.0662C5.42212 59.9713 5.20162 59.8928 4.96316 59.8308C4.72437 59.7664 4.4557 59.7521 4.15717 59.7878L3.38851 59.8798L3.22684 58.755Z" fill="white"/>
<path d="M5.3892 60.8628L6.50521 60.6486L7.24254 63.8496L6.12653 64.0637L5.3892 60.8628ZM4.67573 63.5833L4.33616 62.1091L9.3303 61.1509C9.46747 61.1246 9.56964 61.0833 9.6368 61.0271C9.70164 60.9713 9.74067 60.9036 9.75389 60.8239C9.76658 60.742 9.7615 60.6514 9.73864 60.5522C9.7227 60.483 9.70095 60.4149 9.67338 60.3479C9.64349 60.2814 9.6208 60.2304 9.60533 60.1948L10.6575 59.7508C10.6977 59.8202 10.7484 59.9189 10.8094 60.0469C10.8728 60.1744 10.93 60.3333 10.9811 60.5234C11.0769 60.876 11.101 61.1966 11.0533 61.4852C11.0052 61.7715 10.883 62.0105 10.6868 62.2023C10.4907 62.3941 10.2168 62.5226 9.86517 62.5876L4.67573 63.5833Z" fill="white"/>
<path d="M12.7003 66.2854C12.8156 66.6137 12.8605 66.9233 12.8349 67.2141C12.807 67.5055 12.7046 67.7596 12.5277 67.9764C12.3477 68.1917 12.085 68.3498 11.7397 68.4509C11.4488 68.536 11.1862 68.555 10.9516 68.5079C10.717 68.4608 10.5078 68.3644 10.3238 68.2187C10.1398 68.073 9.97669 67.8941 9.83451 67.682C9.69154 67.4677 9.56283 67.2369 9.44837 66.9896C9.31139 66.6996 9.1971 66.467 9.10548 66.2918C9.01159 66.1173 8.92172 65.9971 8.83588 65.931C8.75004 65.865 8.65145 65.8483 8.54012 65.8809L8.51967 65.8869C8.30382 65.95 8.16036 66.0659 8.0893 66.2345C8.01745 66.4009 8.0243 66.6058 8.10985 66.8492C8.2001 67.1061 8.32985 67.2935 8.49909 67.4115C8.66606 67.5301 8.84452 67.5887 9.03447 67.5873L9.38922 68.9393C9.04758 68.9654 8.72635 68.9141 8.42554 68.7853C8.12244 68.6573 7.85387 68.4563 7.61982 68.1824C7.38271 67.9069 7.19195 67.5637 7.04755 67.1527C6.94709 66.8668 6.88504 66.5833 6.86138 66.302C6.83694 66.0185 6.86058 65.7541 6.93231 65.509C7.00325 65.2616 7.13039 65.0458 7.31374 64.8616C7.49481 64.6781 7.74099 64.5407 8.05227 64.4496L11.5831 63.4163L12.0587 64.7698L11.3328 64.9823L11.3469 65.0225C11.5395 65.0573 11.7227 65.1256 11.8963 65.2275C12.0676 65.3301 12.2227 65.4682 12.3614 65.6419C12.4978 65.8163 12.6108 66.0308 12.7003 66.2854ZM11.5546 66.1699C11.4809 65.96 11.3737 65.7869 11.2331 65.6507C11.0903 65.5151 10.93 65.4228 10.7525 65.3738C10.5749 65.3248 10.394 65.3272 10.21 65.3811L9.65447 65.5437C9.6997 65.5797 9.74855 65.6331 9.80101 65.704C9.85042 65.7733 9.90222 65.853 9.95641 65.943C10.0083 66.0337 10.0591 66.1248 10.1088 66.2162C10.1562 66.3082 10.1993 66.3917 10.2381 66.4665C10.3219 66.6267 10.4131 66.7614 10.5116 66.8705C10.6101 66.9796 10.718 67.0552 10.8355 67.0972C10.9507 67.1398 11.0765 67.1412 11.2128 67.1013C11.4105 67.0434 11.5369 66.9289 11.592 66.7576C11.644 66.5847 11.6315 66.3888 11.5546 66.1699Z" fill="white"/>
<path d="M12.1862 72.9048L15.0852 71.6639L15.7767 73.0095L9.09069 75.8713L8.41871 74.5637L10.9749 73.4695L10.9457 73.4127C10.5934 73.4299 10.2708 73.3522 9.97765 73.1797C9.68237 73.0081 9.44005 72.7381 9.25068 72.3696C9.07755 72.0327 9.00277 71.7063 9.02635 71.3905C9.04668 71.0736 9.1626 70.7851 9.37412 70.525C9.58237 70.2637 9.88292 70.0503 10.2758 69.8847L13.4686 68.5181L14.16 69.8636L11.2153 71.1241C10.9052 71.2542 10.7037 71.433 10.6107 71.6603C10.5167 71.8855 10.54 72.135 10.6807 72.4087C10.7748 72.5919 10.8984 72.7368 11.0514 72.8434C11.2034 72.9479 11.3772 73.0071 11.5728 73.021C11.7652 73.0337 11.9697 72.9949 12.1862 72.9048Z" fill="white"/>
<path d="M19.8932 78.6698L16.1391 82.7306L15.2266 81.5018L17.8396 78.8956L17.81 78.8557L14.1681 80.0762L13.2726 78.8702L15.8379 76.2353L15.8104 76.1982L12.2163 77.4475L11.3059 76.2215L16.8278 74.5414L17.7825 75.8272L15.4239 78.3843L15.4641 78.4385L18.9405 77.3868L19.8932 78.6698Z" fill="white"/>
<path d="M25.1031 83.707L21.0508 87.3581L19.9739 86.3626L20.6809 85.7255L20.6392 85.6869C20.3147 85.8461 20.0022 85.9039 19.7017 85.8605C19.3994 85.8187 19.1362 85.6941 18.9119 85.4868C18.8563 85.4353 18.7998 85.3767 18.7425 85.3109C18.6853 85.2451 18.6384 85.1842 18.6021 85.1281L19.5993 84.2296C19.6356 84.292 19.6937 84.3714 19.7735 84.4677C19.8534 84.564 19.9315 84.6474 20.008 84.7182C20.1714 84.8692 20.3535 84.9717 20.5542 85.0257C20.7515 85.0796 20.9508 85.0841 21.1522 85.0391C21.3519 84.9925 21.5343 84.8947 21.6997 84.7457L23.9923 82.6801L25.1031 83.707Z" fill="white"/>
<path d="M27.8216 85.6168C28.2716 85.9521 28.5831 86.3254 28.7561 86.7366C28.9258 87.1482 28.9582 87.5753 28.8534 88.0177C28.7471 88.4619 28.5022 88.8984 28.1186 89.3272C27.7445 89.7453 27.3289 90.0472 26.8717 90.2329C26.4145 90.4186 25.9485 90.4816 25.4736 90.4218C24.9968 90.3606 24.5439 90.1701 24.1149 89.8505C23.8263 89.6354 23.5964 89.3921 23.4251 89.1203C23.2502 88.8489 23.1464 88.5583 23.1134 88.2485C23.0786 87.9373 23.125 87.6132 23.2526 87.276C23.3787 86.9406 23.5964 86.6 23.9058 86.2541L24.1828 85.9445L27.876 88.6965L27.251 89.3952L24.6996 87.494C24.5544 87.6564 24.4637 87.8285 24.4276 88.0103C24.3914 88.1922 24.4092 88.3686 24.4808 88.5396C24.549 88.711 24.6713 88.8624 24.8479 88.994C25.032 89.1312 25.2308 89.2131 25.4442 89.2398C25.6541 89.2669 25.8582 89.2439 26.0563 89.171C26.2528 89.0999 26.4239 88.9847 26.5694 88.8256L27.1637 88.1613C27.3436 87.9601 27.4592 87.7566 27.5105 87.5508C27.5599 87.3435 27.5461 87.145 27.469 86.9553C27.392 86.7655 27.2519 86.595 27.0488 86.4436C26.914 86.3432 26.7748 86.2689 26.6313 86.2207C26.4877 86.1725 26.3445 86.154 26.2016 86.1652C26.0587 86.1764 25.9206 86.2176 25.7873 86.2888L24.727 85.384C25.008 85.1759 25.3205 85.0441 25.6644 84.9886C26.0048 84.9335 26.3601 84.9571 26.7304 85.0595C27.0972 85.1623 27.461 85.3481 27.8216 85.6168Z" fill="white"/>
<path d="M27.2466 91.9659L31.9854 88.4109L33.4659 89.2556L32.0398 94.7006L30.6518 93.9087L31.8733 90.1276L31.824 90.0994L28.6377 92.7596L27.2466 91.9659Z" fill="white"/>
<path d="M38.1051 91.2539C38.6137 91.4673 39.0009 91.7566 39.2665 92.1216C39.5289 92.4879 39.6657 92.9013 39.677 93.3619C39.6871 93.8247 39.5665 94.3055 39.3151 94.8045C39.0616 95.3076 38.7396 95.7053 38.3491 95.9973C37.9576 96.2915 37.5247 96.4658 37.0503 96.5203C36.5727 96.576 36.0795 96.4971 35.5709 96.2836C35.0622 96.0702 34.6767 95.7803 34.4143 95.4141C34.1487 95.049 34.0108 94.6351 34.0006 94.1724C33.9894 93.7118 34.1106 93.2299 34.3641 92.7267C34.6155 92.2277 34.9369 91.8312 35.3285 91.537C35.7189 91.2449 36.1529 91.0711 36.6306 91.0154C37.105 90.9609 37.5965 91.0404 38.1051 91.2539ZM37.5713 92.2977C37.3399 92.2005 37.1147 92.1829 36.8958 92.2447C36.6758 92.3086 36.4706 92.4351 36.2802 92.6241C36.0876 92.8122 35.9199 93.0479 35.7771 93.3312C35.6344 93.6145 35.5475 93.8841 35.5164 94.14C35.4831 94.395 35.5115 94.6195 35.6015 94.8135C35.6915 95.0075 35.8522 95.1531 36.0836 95.2502C36.3172 95.3482 36.5462 95.3662 36.7705 95.3041C36.9927 95.2411 37.2001 95.1155 37.3927 94.9274C37.5831 94.7384 37.7497 94.5022 37.8924 94.2189C38.0352 93.9356 38.1232 93.6665 38.1565 93.4115C38.1875 93.1556 38.157 92.9302 38.0648 92.7353C37.9693 92.5416 37.8048 92.3957 37.5713 92.2977Z" fill="white"/>
<path d="M43.5891 93.0991C44.1263 93.2525 44.5501 93.4964 44.8603 93.8308C45.1675 94.1668 45.356 94.5649 45.4258 95.0249C45.4933 95.4842 45.4376 95.9748 45.2587 96.4966C45.0776 97.0252 44.8151 97.4592 44.4713 97.7987C44.1245 98.1398 43.7204 98.3674 43.2589 98.4815C42.7966 98.5979 42.3003 98.5804 41.7699 98.4289C41.3123 98.2983 40.9397 98.1022 40.6519 97.8406C40.3642 97.579 40.1709 97.2718 40.0718 96.9189C39.9728 96.5661 39.9814 96.1875 40.0975 95.783L41.4703 96.1749C41.4207 96.4435 41.4521 96.6799 41.5646 96.8841C41.674 97.0899 41.8619 97.2308 42.1282 97.3068C42.3536 97.3712 42.5712 97.3669 42.7811 97.2941C42.988 97.2228 43.1772 97.0863 43.3489 96.8845C43.5205 96.6827 43.662 96.4194 43.7733 96.0947C43.8861 95.7655 43.9365 95.4726 43.9245 95.2159C43.9102 94.9586 43.8396 94.7454 43.7126 94.5764C43.5856 94.4074 43.4094 94.2907 43.184 94.2263C43.0178 94.1789 42.8572 94.1699 42.7021 94.1994C42.5448 94.2283 42.401 94.2942 42.2707 94.3971C42.1374 94.5017 42.026 94.6407 41.9365 94.8144L40.5638 94.4225C40.7217 94.0348 40.9499 93.7189 41.2485 93.4747C41.5441 93.2321 41.8914 93.0755 42.2905 93.005C42.6895 92.9345 43.1224 92.9659 43.5891 93.0991Z" fill="white"/>
<path d="M46.1772 97.869L47.56 98.0134C47.5601 98.1333 47.5893 98.2462 47.6478 98.3519C47.7058 98.4599 47.7923 98.5523 47.9072 98.629C48.0193 98.7077 48.1618 98.7615 48.3346 98.7903C48.5658 98.8289 48.7705 98.8127 48.9489 98.7417C49.1267 98.673 49.2317 98.5586 49.2638 98.3984C49.2893 98.2707 49.2596 98.1542 49.1745 98.0489C49.0894 97.9435 48.9273 97.8433 48.6881 97.7482L47.7535 97.3907C47.2518 97.1967 46.8962 96.9598 46.6868 96.6802C46.4773 96.4006 46.4112 96.0681 46.4884 95.6828C46.5586 95.3322 46.7241 95.042 46.985 94.8121C47.2435 94.5817 47.5674 94.4223 47.9568 94.3337C48.3434 94.2471 48.7702 94.2427 49.2372 94.3206C49.9494 94.4395 50.4873 94.6816 50.8509 95.0469C51.2117 95.4141 51.3772 95.8592 51.3473 96.3819L49.8643 96.2136C49.8632 95.9904 49.7888 95.8076 49.6411 95.6654C49.4929 95.5256 49.2858 95.4334 49.0196 95.389C48.758 95.3454 48.5379 95.3602 48.3591 95.4335C48.1775 95.5088 48.0695 95.6263 48.0351 95.7861C48.0104 95.9211 48.0456 96.0409 48.1404 96.1455C48.2349 96.2524 48.3942 96.3486 48.6184 96.434L49.5131 96.774C50.0176 96.9661 50.3725 97.2124 50.5777 97.5129C50.7807 97.8131 50.8421 98.1628 50.7621 98.562C50.6933 98.9056 50.5406 99.186 50.3041 99.4032C50.0652 99.62 49.7618 99.7673 49.3939 99.845C49.0236 99.9224 48.6085 99.9227 48.1485 99.846C47.4689 99.7326 46.9628 99.5006 46.63 99.15C46.2949 98.799 46.144 98.372 46.1772 97.869Z" fill="white"/>
<path d="M54.0906 94.9806L53.5416 100.407L52.0341 100.28L52.5832 94.8535L54.0906 94.9806ZM52.7135 101.043C52.9376 101.062 53.1224 101.152 53.2678 101.314C53.4106 101.478 53.4714 101.665 53.4502 101.875C53.4292 102.082 53.3322 102.253 53.1591 102.388C52.9834 102.526 52.7836 102.585 52.5594 102.566C52.3353 102.547 52.1519 102.456 52.0091 102.291C51.8637 102.13 51.8015 101.945 51.8224 101.738C51.8436 101.528 51.9421 101.355 52.1177 101.217C52.2908 101.082 52.4894 101.024 52.7135 101.043Z" fill="white"/>
<path d="M58.7348 95.0773L61.3128 95.0437L61.4268 102.315L58.8275 102.349C58.0961 102.359 57.4641 102.222 56.9317 101.937C56.3992 101.655 55.9867 101.245 55.6942 100.707C55.3993 100.169 55.2459 99.5219 55.234 98.7668C55.2221 98.0093 55.3552 97.3565 55.6331 96.8083C55.9086 96.2602 56.3104 95.837 56.8384 95.5389C57.3641 95.2408 57.9963 95.087 58.7348 95.0773ZM59.7959 96.3811L58.8194 96.3938C58.3649 96.3997 57.9839 96.4852 57.6763 96.6502C57.3664 96.8176 57.136 97.0728 56.9851 97.4157C56.8318 97.761 56.7595 98.2047 56.768 98.7468C56.7764 99.2841 56.8626 99.7222 57.0265 100.061C57.1881 100.4 57.4252 100.648 57.7379 100.805C58.0505 100.962 58.4341 101.037 58.8886 101.031L59.8686 101.018L59.7959 96.3811Z" fill="white"/>
<path d="M67.8646 93.9996C68.0942 93.9523 68.3112 93.9921 68.5156 94.119C68.7183 94.2487 68.8478 94.4274 68.9041 94.6549C68.9598 94.8801 68.9264 95.0898 68.8039 95.2842C68.6791 95.479 68.5019 95.6 68.2724 95.6473C68.0498 95.6932 67.8351 95.6529 67.6283 95.5265C67.4216 95.4 67.2903 95.2242 67.2346 94.9989C67.1971 94.8473 67.2021 94.7001 67.2497 94.5575C67.2955 94.4176 67.3716 94.2968 67.478 94.1952C67.585 94.0959 67.7139 94.0306 67.8646 93.9996Z" fill="white"/>
<path d="M72.1365 95.4931L73.2054 98.4371L71.7574 98.875L69.8959 93.7479L71.2862 93.3275L71.6243 94.2588L71.6787 94.2424C71.6874 93.9063 71.7958 93.6056 72.0037 93.3402C72.2094 93.0755 72.5083 92.8839 72.9003 92.7653C73.2493 92.6598 73.5846 92.6448 73.9063 92.7204C74.228 92.796 74.5157 92.9547 74.7695 93.1965C75.021 93.4391 75.2206 93.7603 75.3683 94.1601L76.5536 97.4246L75.1055 97.8625L74.0124 94.8517C73.9003 94.5497 73.7307 94.3355 73.5037 94.2091C73.2767 94.0826 73.0261 94.0608 72.7519 94.1438C72.5775 94.1965 72.4284 94.2848 72.3049 94.4086C72.1821 94.5346 72.1026 94.6896 72.0662 94.8734C72.0276 95.058 72.0511 95.2645 72.1365 95.4931Z" fill="white"/>
<path d="M77.9485 90.9103C78.4529 90.6871 78.9441 90.5976 79.4221 90.6417C79.8991 90.6888 80.336 90.8544 80.7329 91.1384C81.1309 91.4245 81.4609 91.8142 81.7231 92.3076C81.9874 92.8052 82.1189 93.2841 82.1174 93.7444C82.1171 94.2068 81.989 94.6224 81.7331 94.9913C81.4761 95.3632 81.0954 95.6608 80.591 95.884C80.0866 96.1073 79.5959 96.1953 79.1189 96.1481C78.6409 96.104 78.2029 95.9389 77.8049 95.6528C77.4081 95.3688 77.0774 94.9781 76.8131 94.4805C76.5509 93.9871 76.42 93.5092 76.4204 93.0468C76.4218 92.5866 76.551 92.1704 76.808 91.7985C77.0639 91.4296 77.444 91.1336 77.9485 90.9103ZM78.4918 91.9481C78.2623 92.0496 78.1041 92.1972 78.017 92.3906C77.931 92.5862 77.9074 92.8109 77.9461 93.065C77.9826 93.3199 78.0753 93.5875 78.2242 93.8676C78.373 94.1478 78.5458 94.3799 78.7425 94.564C78.9371 94.749 79.1451 94.8713 79.3666 94.9308C79.5881 94.9903 79.8135 94.9693 80.043 94.8677C80.2747 94.7652 80.4356 94.6152 80.5259 94.4177C80.614 94.2212 80.6398 93.9955 80.6033 93.7405C80.5646 93.4865 80.4708 93.2194 80.322 92.9393C80.1731 92.6591 80.0014 92.4265 79.8069 92.2415C79.6101 92.0574 79.3999 91.9361 79.1763 91.8776C78.9516 91.8221 78.7235 91.8456 78.4918 91.9481Z" fill="white"/>
<path d="M83.2356 86.0449C83.4003 85.9466 83.5637 85.8669 83.726 85.8058C83.8848 85.7439 84.0241 85.7034 84.1438 85.6841L84.5089 86.7768C84.3247 86.8235 84.1702 86.8814 84.0455 86.9503C83.9188 87.0205 83.8313 87.1111 83.7833 87.2222C83.7332 87.3346 83.7293 87.477 83.7717 87.6495L83.8299 87.8827L88.7782 91.4405L87.4122 92.2559L84.1092 89.5787L84.0605 89.6078L85.4149 93.448L84.0397 94.2688L82.3395 88.2694C82.2559 87.9787 82.2259 87.6998 82.2495 87.433C82.2696 87.1655 82.3591 86.9156 82.5178 86.6835C82.6752 86.4495 82.9144 86.2366 83.2356 86.0449Z" fill="white"/>
<path d="M90.6505 88.2771L91.6441 87.3197C91.7467 87.3871 91.8616 87.4286 91.9888 87.4442C92.1177 87.4614 92.2511 87.4485 92.3891 87.4053C92.5269 87.3654 92.6625 87.2886 92.7959 87.175C92.9744 87.0231 93.0893 86.8602 93.1408 86.6863C93.194 86.514 93.1622 86.3708 93.0455 86.2566C92.9524 86.1655 92.834 86.1223 92.6904 86.1269C92.5468 86.1315 92.3591 86.1969 92.1273 86.3231L91.2335 86.824C90.7518 87.0916 90.3256 87.2254 89.9547 87.2254C89.5838 87.2253 89.2579 87.0879 88.977 86.8131C88.7214 86.5631 88.5774 86.2754 88.5449 85.9501C88.5106 85.6263 88.5781 85.2933 88.7474 84.951C88.9166 84.6119 89.1814 84.2888 89.5419 83.9819C90.0917 83.5138 90.6372 83.246 91.1784 83.1784C91.7195 83.1141 92.2041 83.2402 92.6323 83.5569L91.5552 84.5761C91.3636 84.4513 91.1605 84.4043 90.946 84.4353C90.7332 84.4678 90.524 84.5716 90.3185 84.7466C90.1167 84.9184 89.9908 85.0922 89.941 85.2677C89.8911 85.4465 89.9236 85.5937 90.0386 85.7095C90.1385 85.804 90.2631 85.845 90.4122 85.8326C90.563 85.8218 90.7455 85.7563 90.9596 85.6359L91.8134 85.1552C92.2951 84.8843 92.729 84.7564 93.1152 84.7713C93.4995 84.7878 93.8372 84.9384 94.1283 85.2232C94.3787 85.4682 94.5224 85.7407 94.5593 86.0406C94.5943 86.3421 94.5294 86.6528 94.3643 86.9729C94.1975 87.2946 93.9366 87.6065 93.5814 87.9089C93.0569 88.3555 92.54 88.6051 92.0309 88.6578C91.5199 88.712 91.0598 88.5851 90.6505 88.2771Z" fill="white"/>
<path d="M96.2139 85.5083L95.326 84.7991L97.5996 82.4283L98.4875 83.1375L96.2139 85.5083ZM98.9924 84.4913L97.9453 85.5832L93.972 82.4095C93.8629 82.3223 93.763 82.2697 93.6725 82.2517C93.5838 82.2352 93.5012 82.2447 93.4247 82.2802C93.3466 82.3173 93.2723 82.3727 93.2019 82.4461C93.1527 82.4974 93.1082 82.5523 93.0683 82.611C93.0302 82.6711 93.0008 82.7171 92.9802 82.7488L91.9359 82.218C91.9699 82.1486 92.0223 82.0547 92.0933 81.9364C92.1625 81.8166 92.2623 81.6835 92.3927 81.5373C92.634 81.2653 92.8931 81.0649 93.1701 80.9361C93.4455 80.8091 93.7272 80.764 94.0152 80.8009C94.3032 80.8378 94.586 80.9687 94.8637 81.1935L98.9924 84.4913Z" fill="white"/>
<path d="M95.6749 78.0784L100.16 81.1819L99.1938 82.3455L94.7082 79.2421L95.6749 78.0784ZM100.253 82.1665C100.397 81.9935 100.581 81.8875 100.807 81.8485C101.033 81.8127 101.232 81.8548 101.406 81.9746C101.577 82.0932 101.673 82.2559 101.695 82.4628C101.716 82.6728 101.655 82.8643 101.512 83.0373C101.368 83.2103 101.183 83.3147 100.957 83.3505C100.732 83.3895 100.533 83.3497 100.362 83.2312C100.189 83.1113 100.091 82.9463 100.069 82.7363C100.048 82.5294 100.109 82.3395 100.253 82.1665Z" fill="white"/>
<path d="M100.874 80.3598L99.898 79.7778L101.857 77.0404L102.834 77.6224L100.874 80.3598ZM97.7 75.4556L102.724 78.4508C103.063 78.6533 103.3 78.8838 103.434 79.1423C103.567 79.4027 103.611 79.676 103.565 79.9621C103.52 80.2482 103.398 80.5309 103.198 80.81C103.063 80.9987 102.924 81.1619 102.782 81.2996C102.638 81.4393 102.527 81.5403 102.447 81.6028L101.628 80.8014C101.679 80.763 101.737 80.7124 101.802 80.6496C101.866 80.5888 101.924 80.5218 101.977 80.4487C102.106 80.2677 102.152 80.115 102.113 79.9904C102.077 79.867 101.979 79.7581 101.821 79.6635L96.8215 76.6829L97.7 75.4556Z" fill="white"/>
<path d="M104.541 74.9444L103.5 74.489L105.027 71.5809L106.068 72.0363L104.541 74.9444ZM106.919 73.2203L106.215 74.5596L101.556 72.5215C101.428 72.4656 101.319 72.4408 101.227 72.4472C101.138 72.4545 101.062 72.4856 100.998 72.5403C100.934 72.5972 100.878 72.6706 100.831 72.7608C100.798 72.8237 100.77 72.8889 100.748 72.9565C100.728 73.0251 100.712 73.0776 100.701 73.114L99.5591 72.8734C99.5726 72.7969 99.5972 72.6916 99.6329 72.5578C99.6663 72.4229 99.7255 72.2671 99.8104 72.0903C99.9669 71.7618 100.16 71.4983 100.39 71.2998C100.618 71.1033 100.875 70.985 101.16 70.9448C101.445 70.9046 101.751 70.9572 102.078 71.1025L106.919 73.2203Z" fill="white"/>
<path d="M101.965 67.8887L107.096 69.7409L106.494 71.1289L101.364 69.2767L101.965 67.8887ZM107.455 70.6769C107.544 70.4706 107.691 70.3189 107.896 70.2218C108.101 70.1277 108.303 70.1164 108.501 70.188C108.697 70.2587 108.834 70.3922 108.911 70.5884C108.99 70.7875 108.984 70.9903 108.895 71.1966C108.805 71.403 108.658 71.5532 108.452 71.6473C108.248 71.7444 108.048 71.7575 107.852 71.6868C107.653 71.6152 107.515 71.4799 107.437 71.2807C107.359 71.0845 107.366 70.8833 107.455 70.6769Z" fill="white"/>
<path d="M108.34 66.5653L107.236 66.2999L108.168 63.0653L109.273 63.3307L108.34 66.5653ZM103.756 62.7971L109.443 64.1631C109.827 64.2555 110.125 64.406 110.336 64.6147C110.545 64.8256 110.676 65.076 110.728 65.3657C110.78 65.6554 110.758 65.9652 110.663 66.2951C110.599 66.518 110.523 66.7174 110.435 66.8934C110.347 67.0716 110.276 67.2029 110.222 67.2873L109.192 66.7625C109.227 66.7101 109.264 66.6437 109.305 66.5634C109.344 66.4854 109.377 66.4032 109.402 66.3167C109.463 66.1029 109.456 65.9417 109.379 65.8333C109.304 65.7253 109.177 65.6498 108.997 65.6067L103.338 64.2473L103.756 62.7971Z" fill="white"/>
<path d="M104.412 60.0188L109.787 60.9489L109.479 62.43L104.105 61.5L104.412 60.0188ZM110.325 61.8128C110.371 61.5926 110.484 61.4164 110.663 61.2842C110.845 61.1548 111.04 61.108 111.247 61.1439C111.452 61.1794 111.612 61.2876 111.727 61.4683C111.844 61.6517 111.879 61.8536 111.833 62.0738C111.788 62.294 111.674 62.4688 111.492 62.5983C111.313 62.7305 111.12 62.7788 110.915 62.7433C110.707 62.7074 110.545 62.5977 110.429 62.4142C110.314 62.2335 110.279 62.033 110.325 61.8128Z" fill="white"/>
<path d="M110.344 57.5659L109.21 57.4957L109.453 54.2199L110.588 54.2902L110.344 57.5659ZM111.837 55.1146L111.724 56.6233L106.649 56.3089C106.509 56.3003 106.399 56.3148 106.318 56.3525C106.239 56.3903 106.182 56.446 106.145 56.5197C106.109 56.5957 106.087 56.6845 106.079 56.786C106.074 56.8568 106.075 56.928 106.081 56.9996C106.09 57.0713 106.097 57.1262 106.101 57.1644L104.96 57.3321C104.942 57.2551 104.923 57.1472 104.902 57.0084C104.879 56.8694 104.871 56.7017 104.879 56.5053C104.892 56.1408 104.964 55.8251 105.095 55.5581C105.227 55.2935 105.415 55.0929 105.66 54.9563C105.905 54.8197 106.206 54.7636 106.563 54.788L111.837 55.1146Z" fill="white"/>
<path d="M107.475 52.0083L110.605 51.8945L110.671 53.4059L105.22 53.6039L105.157 52.1529L106.147 52.1169L106.144 52.0602C105.82 51.9488 105.554 51.7535 105.347 51.4744C105.141 51.1976 105.029 50.8546 105.011 50.4454C104.995 50.0812 105.064 49.7577 105.218 49.475C105.371 49.1922 105.597 48.9673 105.896 48.8001C106.194 48.6353 106.556 48.5439 106.982 48.5261L110.453 48.4L110.519 49.9113L107.318 50.0276C106.996 50.0417 106.745 50.1373 106.566 50.3143C106.386 50.4914 106.303 50.7231 106.315 51.0092C106.323 51.1914 106.372 51.3602 106.462 51.5156C106.554 51.671 106.685 51.7941 106.855 51.8851C107.025 51.9784 107.231 52.0195 107.475 52.0083Z" fill="white"/>
<path d="M104.358 45.4374C104.255 44.8955 104.282 44.4085 104.439 43.9765C104.598 43.5465 104.866 43.1916 105.241 42.9119C105.619 42.6318 106.084 42.4482 106.636 42.3611C107.193 42.2732 107.699 42.3034 108.156 42.4517C108.615 42.5996 108.998 42.8518 109.304 43.2083C109.613 43.5668 109.819 44.0171 109.921 44.559C110.024 45.101 109.996 45.587 109.836 46.017C109.68 46.449 109.413 46.805 109.035 47.0851C108.659 47.3648 108.193 47.5486 107.636 47.6365C107.084 47.7236 106.579 47.6932 106.12 47.5453C105.663 47.3971 105.28 47.1437 104.971 46.7852C104.665 46.4286 104.461 45.9794 104.358 45.4374ZM105.517 45.2616C105.564 45.5082 105.673 45.703 105.845 45.846C106.018 45.9886 106.236 46.0824 106.498 46.1273C106.759 46.1746 107.047 46.1735 107.36 46.1241C107.674 46.0746 107.945 45.9874 108.174 45.8626C108.404 45.7401 108.574 45.585 108.686 45.3973C108.797 45.2097 108.829 44.9926 108.783 44.746C108.735 44.4971 108.624 44.299 108.45 44.1518C108.275 44.0068 108.057 43.9107 107.795 43.8634C107.534 43.8184 107.246 43.8207 106.933 43.8702C106.62 43.9196 106.348 44.0056 106.119 44.1281C105.889 44.253 105.719 44.4104 105.608 44.6004C105.5 44.7923 105.47 45.0128 105.517 45.2616Z" fill="white"/>
<path d="M101.889 37.2992C101.734 36.9151 101.694 36.5332 101.77 36.1536C101.849 35.7753 102.049 35.4286 102.37 35.1134C102.694 34.7997 103.145 34.5457 103.721 34.3514C104.314 34.1519 104.844 34.0793 105.312 34.1335C105.782 34.1871 106.178 34.3357 106.498 34.5794C106.821 34.8245 107.058 35.1325 107.208 35.5034C107.323 35.7866 107.369 36.0391 107.346 36.2611C107.327 36.4846 107.268 36.679 107.169 36.8444C107.074 37.0113 106.969 37.1489 106.854 37.2572L106.872 37.3L109.463 36.4271L110.029 37.8262L103.137 40.1481L102.578 38.7654L103.405 38.4865L103.381 38.4273C103.211 38.4098 103.031 38.3645 102.841 38.2914C102.654 38.2198 102.476 38.104 102.307 37.944C102.138 37.7863 101.999 37.5713 101.889 37.2992ZM103.21 37.3593C103.301 37.5853 103.441 37.7551 103.63 37.8686C103.821 37.9835 104.049 38.0441 104.311 38.0504C104.575 38.0589 104.86 38.0114 105.167 37.9079C105.475 37.8043 105.725 37.6727 105.918 37.5129C106.111 37.3532 106.237 37.1735 106.296 36.974C106.356 36.7744 106.34 36.5616 106.248 36.3355C106.155 36.1051 106.013 35.9324 105.821 35.8174C105.629 35.7025 105.403 35.6426 105.144 35.6377C104.885 35.6329 104.606 35.6807 104.307 35.7812C104.007 35.8825 103.757 36.0127 103.559 36.1717C103.364 36.3322 103.233 36.5123 103.166 36.7119C103.102 36.913 103.116 37.1288 103.21 37.3593Z" fill="white"/>
<path d="M101.869 30.2719L99.03 31.6453L98.2702 30.3372L103.18 27.9616L103.904 29.2083L103.038 29.6274L103.07 29.6827C103.416 29.649 103.744 29.7147 104.053 29.8799C104.364 30.0441 104.621 30.3013 104.824 30.6513C105.015 30.9789 105.106 31.3005 105.098 31.6163C105.091 31.9321 104.988 32.2246 104.789 32.4937C104.593 32.7618 104.304 32.9882 103.922 33.1727L100.796 34.6853L100.036 33.3772L102.919 31.9821C103.221 31.8388 103.413 31.6517 103.494 31.4208C103.578 31.1889 103.544 30.9419 103.391 30.6799C103.289 30.5038 103.159 30.3673 103.002 30.2703C102.846 30.1754 102.67 30.1267 102.475 30.1242C102.283 30.1226 102.081 30.1719 101.869 30.2719Z" fill="white"/>
<path d="M96.677 28.2912L101.352 25.4803L102.237 26.7069L97.5625 29.5178L96.677 28.2912ZM102.399 25.7341C102.267 25.5518 102.218 25.3569 102.252 25.1495C102.289 24.9428 102.398 24.7852 102.578 24.6766C102.757 24.5693 102.956 24.5415 103.177 24.5932C103.401 24.6456 103.579 24.763 103.711 24.9454C103.842 25.1277 103.89 25.3223 103.853 25.5289C103.819 25.7363 103.713 25.8937 103.534 26.0011C103.354 26.1096 103.151 26.1377 102.927 26.0853C102.707 26.0335 102.531 25.9165 102.399 25.7341Z" fill="white"/>
<path d="M93.059 24.0818L98.9367 19.7987L102.107 23.4228L101.083 24.1695L98.9246 21.7026L97.524 22.7232L99.4718 24.9495L98.4472 25.6961L96.4994 23.4698L94.0714 25.2391L93.059 24.0818Z" fill="white"/>
</svg>
